<svg width="1024" height="1024" xmlns="http://www.w3.org/2000/svg">
 <g>
  <title>background</title>
  <rect x="-1" y="-1" width="132.389281" height="132.389281" id="canvas_background" fill="none"/>
 </g>

 <g>
  <title>Layer 1</title>
  <path fill="#333333" clip-rule="evenodd" d="m687.931,0c12.189,10.17 13.047,15.418 4.793,29.768c-9.616,16.717 -19.258,33.418 -29.301,50.841c66.959,52.346 102.643,120.437 104.817,206.436c-170.971,0 -340.732,0 -511.975,0c-0.39,-40.608 9.072,-78.713 27.258,-114.837c18.293,-36.338 44.226,-66.307 77.191,-91.242c-9.974,-17.321 -19.747,-34.259 -29.487,-51.214c-8.222,-14.311 -7.323,-19.719 4.859,-29.752c3.999,0 7.997,0 11.996,0c4.112,5.458 8.719,10.615 12.24,16.432c9.246,15.27 18.019,30.824 27.204,46.648c83.156,-42.419 165.736,-42.464 248.928,-0.018c6.352,-10.938 12.207,-21.662 18.684,-31.994c6.613,-10.555 13.838,-20.728 20.797,-31.068c3.998,0 7.997,0 11.996,0zm-79.749,127.583c-18.057,-0.074 -32.341,14.192 -32.167,32.133c0.166,17.316 14.532,31.676 31.817,31.801c17.682,0.129 32.267,-14.596 32.134,-32.445c-0.129,-17.538 -14.136,-31.414 -31.784,-31.489zm-191.781,0.022c-18.155,-0.184 -32.39,13.819 -32.362,31.838c0.026,17.42 14.075,31.729 31.466,32.047c17.544,0.322 32.471,-14.459 32.459,-32.141c-0.013,-17.462 -14.035,-31.564 -31.563,-31.744z" fill-rule="evenodd" id="svg_4"/>
  <path fill="#333333" clip-rule="evenodd" d="m767.512,320.37c0,159.938 0,319.115 0,479.089c-20.954,0 -41.486,0 -63.54,0c0,4.291 0,7.795 0,11.299c0,47.99 0.023,95.977 -0.01,143.967c-0.027,40.342 -26.931,69.232 -64.262,69.096c-36.86,-0.137 -63.686,-29.018 -63.711,-68.676c-0.029,-47.656 -0.006,-95.312 -0.006,-142.967c0,-3.633 0,-7.266 0,-11.637c-42.592,0 -84.672,0 -127.992,0c0,3.535 0.001,7.078 0,10.619c-0.01,49.986 0.282,99.979 -0.14,149.965c-0.267,31.68 -23.891,57.516 -55.637,62.238c-29.336,4.363 -59.254,-14.078 -68.64,-43.104c-2.408,-7.445 -3.364,-15.654 -3.413,-23.523c-0.303,-48.32 -0.152,-96.645 -0.152,-144.965c0,-3.594 0,-7.186 0,-11.609c-21.349,0 -41.862,0 -63.18,0c0,-160.236 0,-319.642 0,-479.792c169.829,0 339.841,0 510.683,0z" fill-rule="evenodd" id="svg_5"/>
  <path fill="#333333" clip-rule="evenodd" d="m927.96,480.153c0,41.655 0.08,83.313 -0.023,124.968c-0.096,37.889 -27.604,66.527 -63.749,66.605c-36.033,0.076 -64.125,-28.773 -64.172,-66.324c-0.107,-83.979 -0.117,-167.955 0.004,-251.935c0.055,-37.72 27.873,-65.94 64.398,-65.804c36.066,0.135 63.386,28.178 63.511,65.522c0.138,42.324 0.031,84.647 0.031,126.968z" fill-rule="evenodd" id="svg_7"/>
  <path fill="#333333" clip-rule="evenodd" d="m224.009,479.979c-0.008,42.649 0.275,85.3 -0.098,127.948c-0.293,33.525 -25.372,60.273 -58.673,63.594c-31.418,3.131 -60.941,-18.969 -67.907,-51.031c-0.91,-4.188 -1.236,-8.58 -1.24,-12.875c-0.062,-85.633 -0.197,-171.265 0.057,-256.896c0.089,-30.229 20.552,-54.857 50.046,-61.711c28.196,-6.552 58.525,7.418 70.679,34.262c4.383,9.681 6.637,21.091 6.832,31.766c0.763,41.637 0.312,83.294 0.304,124.943z" fill-rule="evenodd" id="svg_8"/>
 </g>
</svg>