<svg width="30" height="30" xmlns="http://www.w3.org/2000/svg">

 <g>
  <title>background</title>
  <rect fill="none" id="canvas_background" height="132.389281" width="132.389281" y="-1" x="-1"/>
 </g>
 <g>
  <title>Layer 1</title>
  <polygon fill="#333333" id="svg_1" points="4,6 6,28 15,30 24,28 26,6 "/>
  <polygon fill="#333333" id="svg_2" points="7.403,2.641 8.643,2.641 8.643,4 10,4 10,-0.057 8.643,-0.057 8.643,1.283 7.403,1.283 7.403,-0.057 6.048,-0.057   6.048,4 7.403,4 "/>
  <polygon fill="#333333" id="svg_3" points="12.192,4 13.549,4 13.549,1.289 14.741,1.289 14.741,-0.057 11,-0.057 11,1.289 12.192,1.289 "/>
  <polygon fill="#333333" id="svg_4" points="16.761,1.99 17.694,3.431 17.717,3.431 18.649,1.99 18.649,4 20,4 20,-0.057 18.585,-0.057 17.717,1.371   16.848,-0.057 15.435,-0.057 15.435,4 16.761,4 "/>
  <polygon fill="#333333" id="svg_5" points="24,2.659 22.094,2.659 22.094,-0.057 20.738,-0.057 20.738,4 24,4 "/>
  <polygon id="svg_6" points="21.5,13 15,13 11,13 11.5,16 15,16 21,16 20,24 15,26 15,26 10,24 9.2,20 12,20 12.5,22 15,23   15,23 15,23 17.5,22 18,18 15,18 15,18 9,18 8,10 15,10 22,10 " fill="#FFFFFF"/>
 </g>
</svg>