<svg width="60" height="60" xmlns="http://www.w3.org/2000/svg">
 <g>
  <title>background</title>
  <rect fill="none" id="canvas_background" height="9.777766" width="9.777766" y="-1" x="-1"/>
 </g>
 <g>
  <title>Layer 1</title>
  <line id="svg_4" y2="9.626678" y1="7.024678" x2="56.047846" x1="56.047846" fill="#19486F"/>
  <defs>
   <path id="SVGID_17_" d="m76.096,47.799c-3.736,-1.236 -7.826,-1.4 -11.305,-1.4c-5.078,0 -11.492,1.166 -12.74,2.891l-0.047,-2.377c0.459,-2.094 6.449,-3.871 11.727,-3.871c1.789,0 9.818,0.812 12.387,2.145"/>
  </defs>
  <clipPath id="SVGID_2_"/>
  <path id="svg_7" fill="#19486F" d="m31.881846,27.981678l0,2.602c-0.053,0.09 -0.092,0.184 -0.127,0.279l0,-2.604c0.035,-0.095 0.074,-0.189 0.127,-0.277"/>
  <path id="svg_8" fill="#19486F" d="m31.754846,28.258678l0,2.604c-0.014,0.045 -0.025,0.094 -0.037,0.141l0,-2.605c0.012,-0.048 0.023,-0.095 0.037,-0.14"/>
  <path id="svg_10" fill="#333333" d="m45.215846,30.249678c2.195,0 4.057,0.176 5.6,0.42c3.301,0.549 5.045,1.486 5.045,2.066c0,0.576 -1.744,1.512 -5.045,2.049c-1.543,0.258 -3.404,0.416 -5.6,0.416c-6.893,0 -10.646,-1.631 -10.646,-2.465c-0.001,-0.84 3.753,-2.486 10.646,-2.486z"/>
  <defs>
   <path id="SVGID_19_" d="m76.23,51.254l0,2.797c0,0.58 -1.744,1.518 -5.045,2.049c-1.543,0.264 -3.404,0.42 -5.6,0.42c-6.893,0 -10.646,-1.629 -10.646,-2.469l0,-2.797c0,0.834 3.754,2.465 10.646,2.465c2.195,0 4.057,-0.158 5.6,-0.416c3.301,-0.537 5.045,-1.473 5.045,-2.049z"/>
  </defs>
  <clipPath id="SVGID_4_"/>
  <path id="svg_13" fill="#19486F" d="m55.859846,32.735678l0,2.797c0,0.016 0,0.033 -0.002,0.049l0,-2.801c0.002,-0.016 0.002,-0.031 0.002,-0.045"/>
  <path id="svg_14" fill="#19486F" d="m55.858846,32.780678l0,2.801c-0.004,0.018 -0.008,0.035 -0.016,0.057l0,-2.801c0.008,-0.02 0.012,-0.04 0.016,-0.057"/>
  <path id="svg_15" fill="#19486F" d="m55.842846,32.836678l0,2.801c-0.008,0.025 -0.021,0.053 -0.035,0.086l0,-2.805c0.013,-0.025 0.027,-0.054 0.035,-0.082"/>
  <path id="svg_16" fill="#e2e2d9" d="m55.807846,32.919678l0,2.805c-0.32,0.576 -2.031,1.379 -4.992,1.857c-1.543,0.264 -3.404,0.42 -5.6,0.42c-6.893,0 -10.646,-1.629 -10.646,-2.469l0,-2.797c0,0.834 3.754,2.465 10.646,2.465c2.195,0 4.057,-0.158 5.6,-0.416c2.96,-0.483 4.671,-1.285 4.992,-1.865"/>
  <path id="svg_19" fill="#19486F" d="m56.035846,54.670678l0,2.803c0,0.02 -0.002,0.041 -0.006,0.062l0,-2.803c0.004,-0.017 0.006,-0.038 0.006,-0.062"/>
  <path id="svg_20" fill="#19486F" d="m56.029846,54.733678l0,2.803c-0.002,0.025 -0.01,0.049 -0.02,0.072l0,-2.799c0.011,-0.025 0.018,-0.049 0.02,-0.076"/>
  <path id="svg_21" fill="#19486F" d="m56.010846,54.809678l0,2.799c-0.01,0.041 -0.027,0.08 -0.053,0.121l0,-2.803c0.026,-0.037 0.043,-0.078 0.053,-0.117"/>
  <path id="svg_22" fill="#e0e0d7" d="m45.967846,57.032678c-3.895,0 -6.889,-0.351 -9.02,-1l0.002,-1.082c-1.324,-0.643 -2.26,-1.371 -2.367,-1.918l0.01,4.578c0.211,0.326 0.68,0.666 2.346,1.227l0,-0.006c2.133,0.653 5.076,1.109 8.977,1.109c7.154,0 10.121,-1.6 10.121,-2.467l0,-2.803c-0.001,0.87 -2.915,2.362 -10.069,2.362z"/>
  <defs>
   <path id="SVGID_21_" d="m27.756,74.479l0,2.605c-2.219,0 -4.018,-1.787 -4.018,-4.002l-0.129,-2.545c0,2.211 1.928,3.942 4.147,3.942z"/>
  </defs>
  <clipPath id="SVGID_6_"/>
  <polygon id="svg_25" points="33.231847167015076,55.932674407958984 33.231847167015076,58.536678314208984 7.385846495628357,58.565677642822266 6.82084596157074,55.143680572509766 " fill="#ddddd2"/>
  <path id="svg_27" fill="#333333" d="m55.762846,26.999678c-3.807,-1.332 -10.055,-1.381 -11.842,-1.355c-5.215,0.07 -11.16,1.309 -12.156,2.85l-0.041,0.309l0.014,0.953l-0.014,24.822c0,0.455 0.979,1.064 1.51,1.361l-26.004,0.021c-2.217,0 -4.018,-1.789 -4.018,-4l0,-44.95c0,-2.201 1.801,-3.986 4.018,-3.986l44.67,-0.002c2.223,0 4.02,1.785 4.02,4.002"/>
  <path id="svg_29" fill="#333333" d="m56.047846,37.720563l-0.012,17.09c0,0.869 -2.967,2.473 -10.121,2.473c-3.912,0 -6.863,-0.465 -8.787,-1.027c-1.424,-0.463 -2.428,-0.98 -2.543,-1.371l0,-17.003c2.082,1.287 6.371,1.959 10.631,1.959l0.277,0c0.449,-0.014 0.871,-0.014 1.307,-0.027l0.176,-0.012c0.379,-0.016 0.729,-0.031 1.092,-0.061c0.188,-0.012 0.361,-0.027 0.537,-0.043c0.289,-0.027 0.566,-0.043 0.842,-0.07c0.162,-0.031 0.307,-0.045 0.453,-0.074c0.305,-0.029 0.596,-0.07 0.9,-0.111c2.326,-0.38 4.129,-0.999 5.248,-1.723z"/>
  <polygon id="svg_30" points="15.627847075462341,15.920677185058594 15.602845549583435,15.920677185058594 13.887845396995544,8.77267837524414 11.465846419334412,8.77267837524414 11.465846419334412,18.417678833007812 12.93484628200531,18.417678833007812 12.93484628200531,10.391677856445312 12.961846709251404,10.391677856445312 14.920846343040466,18.417678833007812 16.225846648216248,18.417678833007812 18.188844084739685,10.391677856445312 18.21384561061859,10.391677856445312 18.21384561061859,18.417678833007812 19.68484628200531,18.417678833007812 19.68484628200531,8.77267837524414 17.315846800804138,8.77267837524414 " fill="#FFFFFF"/>
  <path id="svg_31" fill="#FFFFFF" d="m23.801846,16.610678l-0.025,0l-1.264,-5.461l-1.58,0l2.082,7.436l-0.189,0.59c-0.164,0.463 -0.49,0.57 -0.994,0.57c-0.166,0 -0.312,-0.027 -0.477,-0.055l0,1.162c0.191,0.025 0.395,0.055 0.584,0.055c1.512,0.027 1.986,-0.23 2.559,-2.219l2.016,-7.539l-1.539,0l-1.173,5.461z"/>
  <path id="svg_32" fill="#FFFFFF" d="m31.598846,13.149678l-1.045,-0.379c-1.035,-0.391 -1.457,-0.811 -1.457,-1.637c0,-1.023 0.641,-1.391 1.307,-1.391c0.967,0 1.359,0.514 1.359,1.391l0,0.203l1.549,0l0,-0.217c0,-0.998 -0.254,-2.537 -2.746,-2.537c-1.822,0 -3.02,0.971 -3.02,2.727c0,1.381 0.611,2.109 2.027,2.648l1.061,0.367c0.871,0.258 1.387,0.701 1.387,1.719c0,0.713 -0.488,1.404 -1.467,1.404c-1.078,0 -1.594,-0.598 -1.594,-1.771l0,-0.244l-1.551,0l0,0.232c0,1.352 0.543,2.939 2.951,2.939c1.961,0 3.213,-0.848 3.213,-2.9c0,-1.324 -0.597,-2.07 -1.974,-2.554z"/>
  <path id="svg_33" fill="#FFFFFF" d="m39.666846,18.284678l0.994,1l0.922,-0.824l-0.99,-1.037c0.434,-0.709 0.76,-2.047 0.76,-3.828c0,-3.443 -0.979,-5.012 -3.211,-5.012s-3.209,1.568 -3.209,5.012c0,3.445 0.977,5.01 3.209,5.01c0.615,-0.001 1.131,-0.091 1.525,-0.321zm-3.183,-4.729c0,-3.244 0.732,-3.812 1.658,-3.812c0.928,0 1.662,0.568 1.662,3.812c0,1.354 -0.096,2.256 -0.314,2.838l-0.639,-0.633l-0.885,0.875l0.736,0.715c-0.18,0.072 -0.355,0.098 -0.561,0.098c-0.925,0 -1.657,-0.569 -1.657,-3.893z"/>
  <polygon id="svg_34" points="48.19784677028656,17.120677947998047 44.441842436790466,17.120677947998047 44.441842436790466,8.77267837524414 42.88984429836273,8.77267837524414 42.88984429836273,18.417678833007812 48.19784677028656,18.417678833007812 " fill="#FFFFFF"/>
  <polygon id="svg_35" points="45.35484445095062,51.2786750793457 45.318848967552185,51.2786750793457 43.045846343040466,41.79267883300781 39.830846190452576,41.79267883300781 39.830846190452576,54.59467697143555 41.77784478664398,54.59467697143555 41.77784478664398,43.946678161621094 41.813844084739685,43.946678161621094 44.414849638938904,54.59467697143555 46.149842619895935,54.59467697143555 48.750848174095154,43.946678161621094 48.78584420681,43.946678161621094 48.78584420681,54.59467697143555 50.733842253685,54.59467697143555 50.733842253685,41.79267883300781 47.592843413352966,41.79267883300781 " fill="#FFFFFF"/>
 </g>
</svg>