<svg width="60" height="60" xmlns="http://www.w3.org/2000/svg">
 <g>
  <title>background</title>
  <rect x="-1" y="-1" width="10.333098" height="10.333098" id="canvas_background" fill="none"/>
 </g>
 <g>
  <title>Layer 1</title>
  <line fill="#19486F" x1="56.20696" x2="56.20696" y1="6.394847" y2="8.994847" id="svg_4"/>
  <defs>
   <path d="m76.024,47.803c-3.727,-1.23 -7.805,-1.395 -11.274,-1.395c-5.062,0 -11.462,1.164 -12.706,2.885l-0.047,-2.371c0.459,-2.09 6.432,-3.861 11.697,-3.861c1.783,0 9.791,0.811 12.352,2.137" id="SVGID_23_"/>
  </defs>
  <clipPath id="SVGID_2_"/>
  <path d="m32.10996,27.297847l0,2.596c-0.052,0.088 -0.094,0.182 -0.126,0.277l0,-2.596c0.032,-0.096 0.074,-0.189 0.126,-0.277" fill="#19486F" id="svg_7"/>
  <path d="m31.98396,27.574847l0,2.596c-0.016,0.047 -0.027,0.094 -0.039,0.139l0,-2.596c0.012,-0.047 0.023,-0.096 0.039,-0.139" fill="#19486F" id="svg_8"/>
  <path d="m45.40696,29.560847c2.188,0 4.046,0.172 5.581,0.416c3.293,0.547 5.035,1.484 5.035,2.061c0,0.574 -1.742,1.51 -5.035,2.041c-1.535,0.262 -3.393,0.42 -5.581,0.42c-6.877,0 -10.618,-1.627 -10.618,-2.461c0,-0.838 3.741,-2.477 10.618,-2.477z" fill="#333333" id="svg_10"/>
  <defs>
   <path d="m76.161,51.25l0,2.791c0,0.576 -1.742,1.51 -5.035,2.043c-1.535,0.264 -3.393,0.42 -5.581,0.42c-6.877,0 -10.618,-1.625 -10.618,-2.463l0,-2.791c0,0.834 3.741,2.461 10.618,2.461c2.188,0 4.046,-0.158 5.581,-0.42c3.293,-0.531 5.035,-1.467 5.035,-2.041z" id="SVGID_25_"/>
  </defs>
  <clipPath id="SVGID_4_"/>
  <path d="m56.02296,32.037847l0,2.791c0,0.014 -0.003,0.029 -0.003,0.043l0,-2.791c0,-0.016 0.003,-0.031 0.003,-0.043" fill="#19486F" id="svg_13"/>
  <path d="m56.01996,32.080847l0,2.791c-0.003,0.021 -0.009,0.043 -0.015,0.061l0,-2.793c0.006,-0.02 0.012,-0.04 0.015,-0.059" fill="#19486F" id="svg_14"/>
  <path d="m56.00596,32.139847l0,2.793c-0.01,0.029 -0.024,0.055 -0.039,0.086l0,-2.795c0.014,-0.03 0.029,-0.055 0.039,-0.084" fill="#19486F" id="svg_15"/>
  <path d="m55.96596,32.223847l0,2.795c-0.317,0.576 -2.023,1.377 -4.979,1.854c-1.535,0.264 -3.393,0.42 -5.581,0.42c-6.877,0 -10.618,-1.625 -10.618,-2.463l0,-2.792c0,0.834 3.741,2.461 10.618,2.461c2.188,0 4.046,-0.158 5.581,-0.42c2.956,-0.477 4.662,-1.277 4.979,-1.855" fill="#cccccc" id="svg_16"/>
  <defs>
   <path d="m57.3,73.406l-0.01,3.871c-1.662,-0.553 -2.154,-0.928 -2.363,-1.254l0.014,-4.531c0.105,0.545 1.037,1.27 2.359,1.914z" id="SVGID_27_"/>
  </defs>
  <clipPath id="SVGID_6_"/>
  <defs>
   <path d="m76.335,73.127l0,2.793c0,0.865 -2.962,2.461 -10.094,2.461c-3.902,0 -6.846,-0.457 -8.973,-1.113l0,-2.791c2.127,0.652 5.07,1.113 8.973,1.113c7.132,0 10.094,-1.598 10.094,-2.463z" id="SVGID_29_"/>
  </defs>
  <clipPath id="SVGID_8_"/>
  <path d="m56.19696,53.914847l0,2.793c0,0.021 -0.004,0.043 -0.007,0.064l0,-2.795c0.003,-0.019 0.007,-0.039 0.007,-0.062" fill="#19486F" id="svg_20"/>
  <path d="m56.18996,53.976847l0,2.795c-0.002,0.021 -0.008,0.049 -0.017,0.072l0,-2.793c0.009,-0.025 0.015,-0.046 0.017,-0.074" fill="#19486F" id="svg_21"/>
  <path d="m56.17396,54.051847l0,2.793c-0.012,0.041 -0.03,0.078 -0.053,0.119l0,-2.793c0.022,-0.041 0.041,-0.08 0.053,-0.119" fill="#19486F" id="svg_22"/>
  <path d="m56.12096,54.146847l0,2.791c-0.504,0.891 -3.539,2.209 -10.018,2.209c-3.902,0 -7.057,-0.506 -8.973,-1.066l0,-2.795c1.916,0.561 5.07,1.07 8.973,1.07c6.479,0 9.514,-1.32 10.018,-2.209" fill="#ddddd2" id="svg_23"/>
  <defs>
   <path d="m27.816,74.414l0,2.596c-2.213,0 -4.009,-1.781 -4.009,-3.992l0,-2.596c0.001,2.207 1.797,3.992 4.009,3.992z" id="SVGID_31_"/>
  </defs>
  <clipPath id="SVGID_10_"/>
  <path d="m7.67796,55.433328l0,2.596c-2.213,0 -4.009,-1.781 -4.009,-3.992l0,-2.596c0.001,2.207 1.797,3.992 4.009,3.992" fill="#dbdbd0" id="svg_26"/>
  <polygon fill="#ddddd2" points="33.4529612660408,55.17085003852844 33.4529612660408,57.76984906196594 7.677959740161896,57.79784893989563 7.677959740161896,55.20184826850891 " id="svg_28"/>
  <path d="m55.92296,26.316847c-3.794,-1.326 -10.026,-1.373 -11.81,-1.35c-5.2,0.07 -11.128,1.303 -12.121,2.842l-0.041,0.311l0.015,0.945l-0.015,24.754c0,0.457 0.961,0.953 1.363,1.352l-25.789,0.031c-2.213,0 -4.008,-1.785 -4.008,-3.992l0,-44.824c0,-2.195 1.795,-3.977 4.008,-3.977l44.547,-0.002c2.215,0 4.01,1.781 4.01,3.988" fill="#333333" id="svg_30"/>
  <path d="m56.20696,36.871847l-0.01,17.043c0,0.865 -2.962,2.463 -10.094,2.463c-3.902,0 -6.846,-0.461 -8.761,-1.021c-1.423,-0.459 -2.425,-0.979 -2.538,-1.369l0,-16.954c2.075,1.279 6.352,1.955 10.603,1.955l0.274,0c0.447,-0.016 0.869,-0.016 1.305,-0.027l0.173,-0.016c0.38,-0.014 0.726,-0.029 1.093,-0.057c0.185,-0.014 0.358,-0.029 0.533,-0.045c0.291,-0.025 0.565,-0.043 0.838,-0.072c0.163,-0.027 0.307,-0.043 0.451,-0.07c0.307,-0.029 0.596,-0.07 0.898,-0.115c2.323,-0.375 4.119,-0.996 5.235,-1.715z" fill="#333333" id="svg_32"/>
  <polygon fill="#FFFFFF" points="45.52495986223221,50.533849000930786 45.48995620012283,50.533849000930786 43.21996337175369,41.07484555244446 40.01495772600174,41.07484555244446 40.01495772600174,53.840848207473755 41.95695906877518,53.840848207473755 41.95695906877518,43.21784710884094 41.99596053361893,43.21784710884094 44.587959587574005,53.840848207473755 46.31396132707596,53.840848207473755 48.909954369068146,43.21784710884094 48.94495803117752,43.21784710884094 48.94495803117752,53.840848207473755 50.889961540699005,53.840848207473755 50.889961540699005,41.07484555244446 47.75495558977127,41.07484555244446 " id="svg_33"/>
  <path d="m12.04996,6.480847c-2.225,0 -3.203,1.561 -3.203,5c0,3.436 0.979,4.996 3.203,4.996s3.199,-1.561 3.199,-4.996c0.001,-3.439 -0.974,-5 -3.199,-5zm0,8.84c-0.922,0 -1.656,-0.566 -1.656,-3.881c0,-3.236 0.734,-3.803 1.656,-3.803s1.656,0.566 1.656,3.803c0.001,3.315 -0.734,3.881 -1.656,3.881z" fill="#FFFFFF" id="svg_34"/>
  <path d="m22.72796,15.453847c-0.027,-0.578 -0.041,-1.334 -0.053,-1.951c-0.057,-1.352 -0.561,-1.877 -1.521,-1.969l0,-0.025c1.06,-0.166 1.615,-1.121 1.615,-2.363c0,-1.803 -1.102,-2.479 -2.457,-2.479l-3.421,0l0,9.621l1.547,0l0,-4.174l1.265,0c1.058,0 1.382,0.455 1.412,1.508c0.025,0.701 0.012,1.24 0.066,1.818c0.039,0.377 0.105,0.676 0.258,0.848l1.749,0c-0.202,-0.133 -0.432,-0.361 -0.46,-0.834zm-3.052,-4.498l-1.238,0l0,-3.129l1.316,0c1.021,0 1.466,0.539 1.466,1.564c0,0.971 -0.554,1.565 -1.544,1.565z" fill="#FFFFFF" id="svg_35"/>
  <path d="m26.28296,6.666847l-2.756,9.621l1.615,0l0.625,-2.355l2.836,0l0.596,2.355l1.615,0l-2.553,-9.621l-1.978,0zm-0.234,6.037l1.156,-4.744l0.029,0l1.11,4.744l-2.295,0z" fill="#FFFFFF" id="svg_36"/>
  <path d="m37.71996,12.840847l-1.548,0l0,0.16c0,0.891 -0.149,2.32 -1.442,2.32c-1.139,0 -1.652,-0.781 -1.652,-3.881c0,-3.102 0.514,-3.803 1.652,-3.803c1.115,-0.039 1.387,0.986 1.387,1.877l0,0.158l1.547,0l0,-0.176c0,-0.996 -0.162,-3.016 -2.917,-3.016c-2.457,0 -3.215,1.561 -3.215,5c0,3.436 0.758,4.996 3.198,4.996c2.283,0 2.99,-1.697 2.99,-3.436l0,-0.199z" fill="#FFFFFF" id="svg_37"/>
  <polygon fill="#FFFFFF" points="44.18996077775955,14.996846437454224 40.44495803117752,14.996846437454224 40.44495803117752,6.666846513748169 38.89796096086502,6.666846513748169 38.89796096086502,16.28784680366516 44.18996077775955,16.28784680366516 " id="svg_38"/>
  <polygon fill="#FFFFFF" points="50.715957939624786,14.996846437454224 46.91595870256424,14.996846437454224 46.91595870256424,11.926846742630005 50.38796263933182,11.926846742630005 50.38796263933182,10.63184666633606 46.91595870256424,10.63184666633606 46.91595870256424,7.959847688674927 50.60696059465408,7.959847688674927 50.60696059465408,6.666846513748169 45.36896163225174,6.666846513748169 45.36896163225174,16.28784680366516 50.715957939624786,16.28784680366516 " id="svg_39"/>
 </g>
</svg>