<svg width="60" height="60" xmlns="http://www.w3.org/2000/svg">
 <g>
  <title>background</title>
  <rect x="-1" y="-1" width="62" height="62" id="canvas_background" fill="none"/>
 </g>
 <g>
  <title>Layer 1</title>
  <line fill="#19486F" x1="55.971513" x2="55.971513" y1="6.506857" y2="9.106857" id="svg_3"/>
  <defs>
   <path d="m76.024,47.803c-3.727,-1.23 -7.805,-1.395 -11.274,-1.395c-5.062,0 -11.462,1.164 -12.706,2.885l-0.047,-2.371c0.459,-2.09 6.432,-3.861 11.697,-3.861c1.783,0 9.791,0.811 12.352,2.137" id="SVGID_33_"/>
  </defs>
  <clipPath id="SVGID_2_"/>
  <path d="m31.87451,27.40986l0,2.596c-0.052,0.088 -0.094,0.182 -0.126,0.277l0,-2.596c0.032,-0.096 0.074,-0.189 0.126,-0.277" fill="#19486F" id="svg_6"/>
  <path d="m31.74851,27.68686l0,2.596c-0.016,0.047 -0.027,0.094 -0.039,0.139l0,-2.596c0.012,-0.047 0.023,-0.096 0.039,-0.139" fill="#19486F" id="svg_7"/>
  <path d="m45.17151,29.67286c2.188,0 4.046,0.172 5.581,0.416c3.293,0.547 5.035,1.484 5.035,2.061c0,0.574 -1.742,1.51 -5.035,2.041c-1.535,0.262 -3.393,0.42 -5.581,0.42c-6.877,0 -10.618,-1.627 -10.618,-2.461c0,-0.838 3.741,-2.477 10.618,-2.477z" fill="#333333" id="svg_9"/>
  <defs>
   <path d="m76.161,51.25l0,2.791c0,0.576 -1.742,1.51 -5.035,2.043c-1.535,0.264 -3.393,0.42 -5.581,0.42c-6.877,0 -10.618,-1.625 -10.618,-2.463l0,-2.791c0,0.834 3.741,2.461 10.618,2.461c2.188,0 4.046,-0.158 5.581,-0.42c3.293,-0.531 5.035,-1.467 5.035,-2.041z" id="SVGID_35_"/>
  </defs>
  <clipPath id="SVGID_4_"/>
  <path d="m55.78751,32.14986l0,2.791c0,0.014 -0.003,0.029 -0.003,0.043l0,-2.791c0,-0.016 0.003,-0.031 0.003,-0.043" fill="#19486F" id="svg_12"/>
  <path d="m55.78451,32.19286l0,2.791c-0.003,0.021 -0.009,0.043 -0.015,0.061l0,-2.793c0.006,-0.02 0.012,-0.04 0.015,-0.059" fill="#19486F" id="svg_13"/>
  <path d="m55.77051,32.25186l0,2.793c-0.01,0.029 -0.024,0.055 -0.039,0.086l0,-2.795c0.014,-0.03 0.029,-0.055 0.039,-0.084" fill="#19486F" id="svg_14"/>
  <path d="m55.73051,32.33586l0,2.795c-0.317,0.576 -2.023,1.377 -4.979,1.854c-1.535,0.264 -3.393,0.42 -5.581,0.42c-6.877,0 -10.618,-1.625 -10.618,-2.463l0,-2.792c0,0.834 3.741,2.461 10.618,2.461c2.188,0 4.046,-0.158 5.581,-0.42c2.956,-0.477 4.662,-1.277 4.979,-1.855" fill="#cccccc" id="svg_15"/>
  <defs>
   <path d="m57.3,73.406l-0.01,3.871c-1.662,-0.553 -2.154,-0.928 -2.363,-1.254l0.014,-4.531c0.105,0.545 1.037,1.27 2.359,1.914z" id="SVGID_37_"/>
  </defs>
  <clipPath id="SVGID_6_"/>
  <defs>
   <path d="m76.335,73.127l0,2.793c0,0.865 -2.962,2.461 -10.094,2.461c-3.902,0 -6.846,-0.457 -8.973,-1.113l0,-2.791c2.127,0.652 5.07,1.113 8.973,1.113c7.132,0 10.094,-1.598 10.094,-2.463z" id="SVGID_39_"/>
  </defs>
  <clipPath id="SVGID_8_"/>
  <path d="m55.96151,54.02686l0,2.793c0,0.021 -0.004,0.043 -0.007,0.064l0,-2.795c0.003,-0.019 0.007,-0.039 0.007,-0.062" fill="#19486F" id="svg_19"/>
  <path d="m55.95451,54.08886l0,2.795c-0.002,0.021 -0.008,0.049 -0.017,0.072l0,-2.793c0.009,-0.025 0.015,-0.046 0.017,-0.074" fill="#19486F" id="svg_20"/>
  <path d="m55.93851,54.16386l0,2.793c-0.012,0.041 -0.03,0.078 -0.053,0.119l0,-2.793c0.022,-0.041 0.041,-0.08 0.053,-0.119" fill="#19486F" id="svg_21"/>
  <path d="m55.88551,54.25886l0,2.791c-0.504,0.891 -3.539,2.209 -10.018,2.209c-3.902,0 -7.057,-0.506 -8.973,-1.066l0,-2.795c1.916,0.561 5.07,1.07 8.973,1.07c6.479,0 9.514,-1.32 10.018,-2.209" fill="#cccccc" id="svg_22"/>
  <defs>
   <path d="m27.816,74.414l0,2.596c-2.213,0 -4.009,-1.781 -4.009,-3.992l0,-2.596c0.001,2.207 1.797,3.992 4.009,3.992z" id="SVGID_41_"/>
  </defs>
  <clipPath id="SVGID_10_"/>
  <path d="m7.44251,55.31386l0,2.596c-2.213,0 -4.009,-1.781 -4.009,-3.992l0,-2.596c0.001,2.207 1.797,3.992 4.009,3.992" fill="#cccccc" id="svg_25"/>
  <polygon fill="#cccccc" points="33.217512130737305,55.282859802246094 33.217512130737305,57.881858825683594 7.442512512207031,57.90985870361328 7.442512512207031,55.31385803222656 " id="svg_27"/>
  <path d="m55.560177,26.42886c-3.794,-1.326 -10.026,-1.373 -11.81,-1.35c-5.2,0.07 -11.128,1.303 -12.121,2.842l-0.041,0.311l0.015,0.945l-0.015,24.754c0,0.457 0.961,0.953 1.363,1.352l-25.789,0.031c-2.213,0 -4.008,-1.785 -4.008,-3.992l0,-44.824c0,-2.195 1.795,-3.977 4.008,-3.977l44.547,-0.002c2.215,0 4.01,1.781 4.01,3.988" fill="#333333" id="svg_29"/>
  <path d="m55.97151,36.98386l-0.01,17.043c0,0.865 -2.962,2.463 -10.094,2.463c-3.902,0 -6.846,-0.461 -8.761,-1.021c-1.423,-0.459 -2.425,-0.979 -2.538,-1.369l0,-16.954c2.075,1.279 6.352,1.955 10.603,1.955l0.274,0c0.447,-0.016 0.869,-0.016 1.305,-0.027l0.173,-0.016c0.38,-0.014 0.726,-0.029 1.093,-0.057c0.185,-0.014 0.358,-0.029 0.533,-0.045c0.291,-0.025 0.565,-0.043 0.838,-0.072c0.163,-0.027 0.307,-0.043 0.451,-0.07c0.307,-0.029 0.596,-0.07 0.898,-0.115c2.323,-0.375 4.119,-0.996 5.235,-1.715z" fill="#333333" id="svg_31"/>
  <polygon fill="#FFFFFF" points="45.28951454162598,50.64585876464844 45.2545108795166,50.64585876464844 42.984514236450195,41.18685531616211 39.77951240539551,41.18685531616211 39.77951240539551,53.952857971191406 41.721513748168945,53.952857971191406 41.721513748168945,43.329856872558594 41.76051139831543,43.329856872558594 44.35251045227051,53.952857971191406 46.07851600646973,53.952857971191406 48.674509048461914,43.329856872558594 48.70951271057129,43.329856872558594 48.70951271057129,53.952857971191406 50.65451240539551,53.952857971191406 50.65451240539551,41.18685531616211 47.51951026916504,41.18685531616211 " id="svg_32"/>
  <path d="m10.00651,7.34486l2.864,0l1.364,6.744l0.027,0l1.378,-6.744l2.851,0l0,9.555l-1.767,0l0,-7.628l-0.026,0l-1.699,7.628l-1.499,0l-1.7,-7.628l-0.026,0l0,7.628l-1.767,0l0,-9.555z" fill="#FFFFFF" id="svg_34"/>
  <path d="m21.42551,13.91586l0,0.281c0,0.896 0.254,1.472 1.271,1.472c0.588,0 1.15,-0.374 1.15,-1.178c0,-0.869 -0.441,-1.19 -1.713,-1.632c-1.713,-0.589 -2.502,-1.299 -2.502,-2.891c0,-1.86 1.137,-2.811 2.957,-2.811c1.713,0 2.957,0.736 2.957,2.569l0,0.268l-1.847,0c0,-0.896 -0.308,-1.418 -1.044,-1.418c-0.869,0 -1.097,0.548 -1.097,1.11c0,0.589 0.174,0.95 0.99,1.298l1.485,0.643c1.445,0.629 1.819,1.365 1.819,2.529c0,2.021 -1.23,2.931 -3.318,2.931c-2.182,0 -3.038,-1.018 -3.038,-2.783l0,-0.389l1.93,0l0,0.001z" fill="#FFFFFF" id="svg_35"/>
  <path d="m31.58651,13.91586l0,0.281c0,0.896 0.254,1.472 1.271,1.472c0.588,0 1.15,-0.374 1.15,-1.178c0,-0.869 -0.441,-1.19 -1.713,-1.632c-1.713,-0.589 -2.503,-1.299 -2.503,-2.891c0,-1.86 1.138,-2.811 2.958,-2.811c1.713,0 2.957,0.736 2.957,2.569l0,0.268l-1.847,0c0,-0.896 -0.308,-1.418 -1.044,-1.418c-0.869,0 -1.097,0.548 -1.097,1.11c0,0.589 0.174,0.95 0.99,1.298l1.485,0.643c1.445,0.629 1.819,1.365 1.819,2.529c0,2.021 -1.23,2.931 -3.318,2.931c-2.182,0 -3.038,-1.018 -3.038,-2.783l0,-0.389l1.93,0l0,0.001z" fill="#FFFFFF" id="svg_36"/>
  <path d="m42.44151,18.07786l-1.137,-1.178c-0.174,0.067 -0.374,0.12 -0.589,0.147c-0.2,0.026 -0.428,0.04 -0.683,0.04c-2.89,0 -3.251,-2.061 -3.251,-4.965s0.361,-4.965 3.251,-4.965c2.891,0 3.252,2.061 3.252,4.965c0,1.619 -0.106,2.971 -0.735,3.881l1.03,1.044l-1.138,1.031zm-2.409,-2.409c1.138,0 1.325,-0.977 1.325,-3.546c0,-2.556 -0.188,-3.546 -1.325,-3.546c-1.137,0 -1.324,0.99 -1.324,3.546c0,2.569 0.188,3.546 1.324,3.546z" fill="#FFFFFF" id="svg_37"/>
  <path d="m44.42551,16.89986l0,-9.555l1.927,0l0,7.976l3.413,0l0,1.579l-5.34,0z" fill="#FFFFFF" id="svg_38"/>
 </g>
</svg>