<?xml version="1.0" encoding="UTF-8"?>
<svg width="97px" height="20px" viewBox="0 0 97 20" version="1.1" xmlns="http://www.w3.org/2000/svg" xmlns:xlink="http://www.w3.org/1999/xlink">
    <!-- Generator: Sketch 46.2 (44496) - http://www.bohemiancoding.com/sketch -->
    <title>uber-logo</title>
    <desc>Created with Sketch.</desc>
    <defs></defs>
    <g id="Hifi" stroke="none" stroke-width="1" fill="none" fill-rule="evenodd">
        <g id="our-customers-navigation" transform="translate(-270.000000, -284.000000)" fill="#546B81">
            <g id="Logo-Bar" transform="translate(0.000000, 147.000000)">
                <g id="Logos" transform="translate(270.000000, 127.000000)">
                    <path d="M15.7464015,10 L19.4768972,10 L19.4768972,21.6904277 C19.4768972,27.8411405 15.4990759,30 9.72814336,30 C3.97782133,30 0,27.8411405 0,21.6904277 L0,10.4684318 C0,10.1425662 0.164883786,10 0.494651357,10 L4.22514701,10 L4.22514701,21.5071283 C4.22514701,25.1934827 5.87398486,26.7209776 9.72814336,26.7209776 C13.6029123,26.7209776 15.2517502,25.1934827 15.2517502,21.5071283 L15.2517502,10.4684318 C15.2517502,10.1425662 15.416634,10 15.7464015,10 L15.7464015,10 Z M57.9772611,13.197556 L57.9772611,18.1262729 L67.4168579,18.1262729 C67.5817417,18.1262729 67.6435731,18.2077393 67.5817417,18.3706721 L66.551218,20.8961303 C66.4481656,21.1201629 66.3038923,21.2219959 65.9947352,21.2219959 L60.4505179,21.2219959 C58.6367963,21.2219959 57.9772611,21.7718941 57.9772611,22.9735234 L57.9772611,26.4562118 L70.7557545,26.4562118 C70.9206383,26.4562118 70.9824697,26.5376782 70.9206383,26.700611 L69.8488937,29.3279022 C69.7458413,29.5519348 69.601568,29.6537678 69.2924109,29.6537678 L55.2978996,29.6537678 C54.226155,29.6537678 53.8139456,29.287169 53.8139456,28.4928717 L53.8139456,11.3645621 C53.8139456,10.407332 54.3498179,10 55.75133,10 L70.7557545,10 C70.9206383,10 70.9824697,10.0814664 70.9206383,10.2240326 L69.8488937,12.8716904 C69.7458413,13.095723 69.601568,13.197556 69.2924109,13.197556 L57.9772611,13.197556 L57.9772611,13.197556 Z M46.126239,24.2158859 C46.126239,28.1466395 43.3232147,29.6537678 39.3866143,29.6537678 L28.9577149,29.6537678 C27.8653598,29.6537678 27.4737608,29.287169 27.4737608,28.4928717 L27.4737608,11.3645621 C27.4737608,10.407332 27.9890226,10 29.4111453,10 L37.8820498,10 C41.5919349,10 45.1781573,10.6313646 45.1781573,14.9898167 C45.1781573,16.8635438 44.4980117,18.4521385 42.8697843,19.287169 C45.1163259,19.8778004 46.126239,21.8737271 46.126239,24.2158859 L46.126239,24.2158859 Z M31.575245,18.1873727 L38.1912069,18.1873727 C40.375917,18.1873727 40.9942312,17.3523422 40.9942312,15.6415479 C40.9942312,13.9307536 40.375917,13.1160896 38.1912069,13.1160896 L31.575245,13.1160896 L31.575245,18.1873727 L31.575245,18.1873727 Z M41.942313,23.8492872 C41.942313,22.0366599 41.3033883,21.1405295 38.9537944,21.1405295 L34.0691122,21.1405295 C32.2553906,21.1405295 31.575245,21.6904277 31.575245,22.892057 L31.575245,26.5376782 L38.9537944,26.5376782 C41.3033883,26.5376782 41.942313,25.6415479 41.942313,23.8492872 L41.942313,23.8492872 Z M96.7661717,29.6537678 L92.9738447,29.6537678 C92.6646876,29.6537678 92.5410247,29.5315682 92.4173619,29.3279022 L88.3983196,22.1588595 L84.7090449,22.1588595 C82.8953233,22.1588595 82.2151776,22.7087576 82.2151776,23.910387 L82.2151776,29.6537678 L78.5877344,29.6537678 C78.2579668,29.6537678 78.093083,29.490835 78.093083,29.185336 L78.093083,11.3645621 C78.093083,10.407332 78.6289553,10 80.0304675,10 L88.5425929,10 C93.509717,10 96.4982356,11.2830957 96.4982356,16.0488798 C96.4982356,19.7352342 94.7051244,21.1812627 92.4791933,21.7515275 L96.951666,29.3075356 C97.0341079,29.4297352 97.0341079,29.6537678 96.7661717,29.6537678 L96.7661717,29.6537678 Z M92.3143095,16.1303462 C92.3143095,14.1344196 91.7578267,13.1568228 89.1609071,13.1568228 L82.2151776,13.1568228 L82.2151776,19.1038697 L89.1609071,19.1038697 C91.7578267,19.1038697 92.3143095,18.1466395 92.3143095,16.1303462 L92.3143095,16.1303462 Z" id="uber-logo"></path>
                </g>
            </g>
        </g>
    </g>
</svg>